<svg viewBox="0 0 100 100" xmlns="http://www.w3.org/2000/svg">
  <!-- Dark slate background matching the admin platform sidebar -->
  <rect width="100" height="100" rx="22" fill="#0f172a"/>
  <!-- B mark, scaled and centred: translate(16, 2) scale(0.875) -->
  <g transform="translate(16,2) scale(0.875)">
    <path fill="#F05228" d="M 8,8 L 8,104 L 48,104 C 70,104 78,94 78,82 C 78,70 70,62 58,59 C 68,56 74,48 74,36 C 74,20 64,8 44,8 Z"/>
    <path fill="#0f172a" d="M 24,22 L 42,22 C 56,22 58,30 58,36 C 58,46 52,50 40,50 L 24,50 Z"/>
    <path fill="#F5845A" d="M 26,64 L 26,92 Q 26,100 34,100 L 60,100 Q 70,100 70,90 L 70,72 Q 70,64 60,64 L 34,64 Q 26,64 26,64 Z"/>
    <path fill="none" stroke="#0f172a" stroke-width="5" stroke-linecap="round" d="M 36,64 C 36,52 62,52 62,64"/>
  </g>
</svg>
